<mxfile host="app.diagrams.net" modified="2020-09-12T23:41:41.102Z" agent="5.0 (Windows NT 10.0; Win64; x64) AppleWebKit/537.36 (KHTML, like Gecko) Chrome/85.0.4183.83 Safari/537.36" etag="KlQEPPUzYmFJVBhWYUBZ" version="13.0.1" type="github">
  <diagram id="yB4tgH8WNEcv2aLtNd5O" name="Page-1">
    <mxGraphModel dx="1695" dy="450" grid="1" gridSize="10" guides="1" tooltips="1" connect="1" arrows="1" fold="1" page="1" pageScale="1" pageWidth="827" pageHeight="1169" math="0" shadow="0">
      <root>
        <mxCell id="0" />
        <mxCell id="1" parent="0" />
        <mxCell id="eOK4KzIIIrYUgGo_h60R-21" style="edgeStyle=none;rounded=0;sketch=0;orthogonalLoop=1;jettySize=auto;html=1;exitX=0.5;exitY=1;exitDx=0;exitDy=0;entryX=0.5;entryY=0;entryDx=0;entryDy=0;shadow=0;endArrow=none;endFill=0;strokeColor=#000000;" parent="1" source="eOK4KzIIIrYUgGo_h60R-1" target="eOK4KzIIIrYUgGo_h60R-20" edge="1">
          <mxGeometry relative="1" as="geometry" />
        </mxCell>
        <mxCell id="eOK4KzIIIrYUgGo_h60R-1" value="Cliente" style="rounded=0;whiteSpace=wrap;html=1;" parent="1" vertex="1">
          <mxGeometry x="80" y="260" width="130" height="40" as="geometry" />
        </mxCell>
        <mxCell id="eOK4KzIIIrYUgGo_h60R-13" style="edgeStyle=none;rounded=0;sketch=0;orthogonalLoop=1;jettySize=auto;html=1;exitX=0.5;exitY=1;exitDx=0;exitDy=0;shadow=0;endArrow=none;endFill=0;strokeColor=#000000;" parent="1" source="eOK4KzIIIrYUgGo_h60R-2" target="eOK4KzIIIrYUgGo_h60R-1" edge="1">
          <mxGeometry relative="1" as="geometry" />
        </mxCell>
        <mxCell id="eOK4KzIIIrYUgGo_h60R-2" value="CPF" style="ellipse;whiteSpace=wrap;html=1;" parent="1" vertex="1">
          <mxGeometry x="440" y="150" width="110" height="40" as="geometry" />
        </mxCell>
        <mxCell id="eOK4KzIIIrYUgGo_h60R-14" style="edgeStyle=none;rounded=0;sketch=0;orthogonalLoop=1;jettySize=auto;html=1;exitX=0.5;exitY=1;exitDx=0;exitDy=0;entryX=0.369;entryY=0;entryDx=0;entryDy=0;entryPerimeter=0;shadow=0;endArrow=none;endFill=0;strokeColor=#000000;" parent="1" source="eOK4KzIIIrYUgGo_h60R-3" target="eOK4KzIIIrYUgGo_h60R-1" edge="1">
          <mxGeometry relative="1" as="geometry" />
        </mxCell>
        <mxCell id="eOK4KzIIIrYUgGo_h60R-3" value="Nome" style="ellipse;whiteSpace=wrap;html=1;" parent="1" vertex="1">
          <mxGeometry x="180" y="100" width="110" height="40" as="geometry" />
        </mxCell>
        <mxCell id="eOK4KzIIIrYUgGo_h60R-15" style="edgeStyle=none;rounded=0;sketch=0;orthogonalLoop=1;jettySize=auto;html=1;exitX=0.5;exitY=1;exitDx=0;exitDy=0;entryX=0.5;entryY=0;entryDx=0;entryDy=0;shadow=0;endArrow=none;endFill=0;strokeColor=#000000;" parent="1" source="eOK4KzIIIrYUgGo_h60R-5" target="eOK4KzIIIrYUgGo_h60R-1" edge="1">
          <mxGeometry relative="1" as="geometry" />
        </mxCell>
        <mxCell id="eOK4KzIIIrYUgGo_h60R-5" value="RG" style="ellipse;whiteSpace=wrap;html=1;" parent="1" vertex="1">
          <mxGeometry x="300" y="100" width="110" height="40" as="geometry" />
        </mxCell>
        <mxCell id="eOK4KzIIIrYUgGo_h60R-19" style="edgeStyle=none;rounded=0;sketch=0;orthogonalLoop=1;jettySize=auto;html=1;exitX=0.5;exitY=1;exitDx=0;exitDy=0;entryX=0.908;entryY=0;entryDx=0;entryDy=0;entryPerimeter=0;shadow=0;endArrow=none;endFill=0;strokeColor=#000000;" parent="1" source="eOK4KzIIIrYUgGo_h60R-18" target="eOK4KzIIIrYUgGo_h60R-1" edge="1">
          <mxGeometry relative="1" as="geometry" />
        </mxCell>
        <mxCell id="eOK4KzIIIrYUgGo_h60R-18" value="Telefone" style="ellipse;shape=doubleEllipse;margin=3;whiteSpace=wrap;html=1;align=center;" parent="1" vertex="1">
          <mxGeometry x="410" y="110" width="100" height="40" as="geometry" />
        </mxCell>
        <mxCell id="eOK4KzIIIrYUgGo_h60R-23" style="edgeStyle=none;rounded=0;sketch=0;orthogonalLoop=1;jettySize=auto;html=1;exitX=0.5;exitY=1;exitDx=0;exitDy=0;entryX=0.5;entryY=0;entryDx=0;entryDy=0;shadow=0;endArrow=none;endFill=0;strokeColor=#000000;" parent="1" source="eOK4KzIIIrYUgGo_h60R-20" target="eOK4KzIIIrYUgGo_h60R-22" edge="1">
          <mxGeometry relative="1" as="geometry" />
        </mxCell>
        <mxCell id="eOK4KzIIIrYUgGo_h60R-20" value="Possui" style="rhombus;whiteSpace=wrap;html=1;" parent="1" vertex="1">
          <mxGeometry x="70" y="430" width="150" height="80" as="geometry" />
        </mxCell>
        <mxCell id="eOK4KzIIIrYUgGo_h60R-39" style="edgeStyle=none;rounded=0;sketch=0;orthogonalLoop=1;jettySize=auto;html=1;exitX=0.5;exitY=1;exitDx=0;exitDy=0;entryX=0.5;entryY=0;entryDx=0;entryDy=0;shadow=0;endArrow=none;endFill=0;strokeColor=#000000;" parent="1" source="eOK4KzIIIrYUgGo_h60R-22" target="eOK4KzIIIrYUgGo_h60R-38" edge="1">
          <mxGeometry relative="1" as="geometry" />
        </mxCell>
        <mxCell id="eOK4KzIIIrYUgGo_h60R-22" value="&#xa;&#xa;&lt;span style=&quot;color: rgb(0, 0, 0); font-family: helvetica; font-size: 12px; font-style: normal; font-weight: 400; letter-spacing: normal; text-align: center; text-indent: 0px; text-transform: none; word-spacing: 0px; background-color: rgb(248, 249, 250); display: inline; float: none;&quot;&gt;Veiculo&amp;nbsp;&lt;/span&gt;&#xa;&#xa;" style="rounded=0;whiteSpace=wrap;html=1;" parent="1" vertex="1">
          <mxGeometry x="70" y="600" width="150" height="40" as="geometry" />
        </mxCell>
        <mxCell id="eOK4KzIIIrYUgGo_h60R-29" style="edgeStyle=none;rounded=0;sketch=0;orthogonalLoop=1;jettySize=auto;html=1;exitX=1;exitY=0.5;exitDx=0;exitDy=0;shadow=0;endArrow=none;endFill=0;strokeColor=#000000;" parent="1" source="eOK4KzIIIrYUgGo_h60R-24" target="eOK4KzIIIrYUgGo_h60R-22" edge="1">
          <mxGeometry relative="1" as="geometry" />
        </mxCell>
        <mxCell id="eOK4KzIIIrYUgGo_h60R-24" value="Modelo" style="ellipse;whiteSpace=wrap;html=1;" parent="1" vertex="1">
          <mxGeometry x="-100" y="610" width="110" height="40" as="geometry" />
        </mxCell>
        <mxCell id="eOK4KzIIIrYUgGo_h60R-27" style="edgeStyle=none;rounded=0;sketch=0;orthogonalLoop=1;jettySize=auto;html=1;exitX=1;exitY=0.5;exitDx=0;exitDy=0;entryX=0;entryY=0.25;entryDx=0;entryDy=0;shadow=0;endArrow=none;endFill=0;strokeColor=#000000;" parent="1" source="eOK4KzIIIrYUgGo_h60R-25" target="eOK4KzIIIrYUgGo_h60R-22" edge="1">
          <mxGeometry relative="1" as="geometry" />
        </mxCell>
        <mxCell id="eOK4KzIIIrYUgGo_h60R-25" value="Cor" style="ellipse;whiteSpace=wrap;html=1;" parent="1" vertex="1">
          <mxGeometry x="-100" y="510" width="110" height="40" as="geometry" />
        </mxCell>
        <mxCell id="eOK4KzIIIrYUgGo_h60R-28" style="edgeStyle=none;rounded=0;sketch=0;orthogonalLoop=1;jettySize=auto;html=1;exitX=1;exitY=0.5;exitDx=0;exitDy=0;shadow=0;endArrow=none;endFill=0;strokeColor=#000000;" parent="1" source="eOK4KzIIIrYUgGo_h60R-26" edge="1">
          <mxGeometry relative="1" as="geometry">
            <mxPoint x="70" y="620" as="targetPoint" />
          </mxGeometry>
        </mxCell>
        <mxCell id="eOK4KzIIIrYUgGo_h60R-26" value="Placa&amp;nbsp;" style="ellipse;whiteSpace=wrap;html=1;" parent="1" vertex="1">
          <mxGeometry x="-100" y="560" width="110" height="40" as="geometry" />
        </mxCell>
        <mxCell id="eOK4KzIIIrYUgGo_h60R-31" style="edgeStyle=none;rounded=0;sketch=0;orthogonalLoop=1;jettySize=auto;html=1;exitX=0;exitY=0.5;exitDx=0;exitDy=0;entryX=1;entryY=0.5;entryDx=0;entryDy=0;shadow=0;endArrow=none;endFill=0;strokeColor=#000000;" parent="1" source="eOK4KzIIIrYUgGo_h60R-30" target="eOK4KzIIIrYUgGo_h60R-22" edge="1">
          <mxGeometry relative="1" as="geometry" />
        </mxCell>
        <mxCell id="eOK4KzIIIrYUgGo_h60R-30" value="Fica" style="rhombus;whiteSpace=wrap;html=1;" parent="1" vertex="1">
          <mxGeometry x="330" y="585" width="120" height="70" as="geometry" />
        </mxCell>
        <mxCell id="eOK4KzIIIrYUgGo_h60R-37" style="edgeStyle=none;rounded=0;sketch=0;orthogonalLoop=1;jettySize=auto;html=1;exitX=0;exitY=0.5;exitDx=0;exitDy=0;entryX=1;entryY=0.5;entryDx=0;entryDy=0;shadow=0;endArrow=none;endFill=0;strokeColor=#000000;" parent="1" source="eOK4KzIIIrYUgGo_h60R-32" target="eOK4KzIIIrYUgGo_h60R-30" edge="1">
          <mxGeometry relative="1" as="geometry" />
        </mxCell>
        <mxCell id="eOK4KzIIIrYUgGo_h60R-32" value="Vaga" style="rounded=0;whiteSpace=wrap;html=1;" parent="1" vertex="1">
          <mxGeometry x="520" y="600" width="120" height="40" as="geometry" />
        </mxCell>
        <mxCell id="eOK4KzIIIrYUgGo_h60R-36" style="edgeStyle=none;rounded=0;sketch=0;orthogonalLoop=1;jettySize=auto;html=1;exitX=0.5;exitY=1;exitDx=0;exitDy=0;shadow=0;endArrow=none;endFill=0;strokeColor=#000000;" parent="1" source="eOK4KzIIIrYUgGo_h60R-33" target="eOK4KzIIIrYUgGo_h60R-32" edge="1">
          <mxGeometry relative="1" as="geometry" />
        </mxCell>
        <mxCell id="eOK4KzIIIrYUgGo_h60R-33" value="Localização&amp;nbsp;" style="ellipse;whiteSpace=wrap;html=1;" parent="1" vertex="1">
          <mxGeometry x="550" y="510" width="90" height="40" as="geometry" />
        </mxCell>
        <mxCell id="eOK4KzIIIrYUgGo_h60R-35" style="edgeStyle=none;rounded=0;sketch=0;orthogonalLoop=1;jettySize=auto;html=1;exitX=0.5;exitY=1;exitDx=0;exitDy=0;shadow=0;endArrow=none;endFill=0;strokeColor=#000000;" parent="1" source="eOK4KzIIIrYUgGo_h60R-34" target="eOK4KzIIIrYUgGo_h60R-32" edge="1">
          <mxGeometry relative="1" as="geometry" />
        </mxCell>
        <mxCell id="eOK4KzIIIrYUgGo_h60R-34" value="Numero" style="ellipse;whiteSpace=wrap;html=1;" parent="1" vertex="1">
          <mxGeometry x="660" y="510" width="90" height="40" as="geometry" />
        </mxCell>
        <mxCell id="eOK4KzIIIrYUgGo_h60R-46" style="edgeStyle=none;rounded=0;sketch=0;orthogonalLoop=1;jettySize=auto;html=1;exitX=0;exitY=0.5;exitDx=0;exitDy=0;entryX=1;entryY=0.5;entryDx=0;entryDy=0;shadow=0;endArrow=none;endFill=0;strokeColor=#000000;shape=link;" parent="1" source="eOK4KzIIIrYUgGo_h60R-38" target="eOK4KzIIIrYUgGo_h60R-45" edge="1">
          <mxGeometry relative="1" as="geometry" />
        </mxCell>
        <mxCell id="eOK4KzIIIrYUgGo_h60R-38" value="Registra" style="rhombus;whiteSpace=wrap;html=1;" parent="1" vertex="1">
          <mxGeometry x="75" y="730" width="140" height="80" as="geometry" />
        </mxCell>
        <mxCell id="eOK4KzIIIrYUgGo_h60R-44" style="edgeStyle=none;rounded=0;sketch=0;orthogonalLoop=1;jettySize=auto;html=1;exitX=0;exitY=0.5;exitDx=0;exitDy=0;shadow=0;endArrow=none;endFill=0;strokeColor=#000000;" parent="1" source="eOK4KzIIIrYUgGo_h60R-40" target="eOK4KzIIIrYUgGo_h60R-38" edge="1">
          <mxGeometry relative="1" as="geometry" />
        </mxCell>
        <mxCell id="eOK4KzIIIrYUgGo_h60R-40" value="Horário&amp;nbsp;&lt;br&gt;Saída" style="ellipse;whiteSpace=wrap;html=1;" parent="1" vertex="1">
          <mxGeometry x="240" y="770" width="120" height="50" as="geometry" />
        </mxCell>
        <mxCell id="eOK4KzIIIrYUgGo_h60R-43" style="edgeStyle=none;rounded=0;sketch=0;orthogonalLoop=1;jettySize=auto;html=1;exitX=0;exitY=0.5;exitDx=0;exitDy=0;shadow=0;endArrow=none;endFill=0;strokeColor=#000000;" parent="1" source="eOK4KzIIIrYUgGo_h60R-41" target="eOK4KzIIIrYUgGo_h60R-38" edge="1">
          <mxGeometry relative="1" as="geometry" />
        </mxCell>
        <mxCell id="eOK4KzIIIrYUgGo_h60R-41" value="Horário&lt;br&gt;entrada" style="ellipse;whiteSpace=wrap;html=1;" parent="1" vertex="1">
          <mxGeometry x="240" y="710" width="120" height="50" as="geometry" />
        </mxCell>
        <mxCell id="eOK4KzIIIrYUgGo_h60R-45" value="Atendente&amp;nbsp;" style="rounded=0;whiteSpace=wrap;html=1;" parent="1" vertex="1">
          <mxGeometry x="-290" y="750" width="130" height="40" as="geometry" />
        </mxCell>
        <mxCell id="eOK4KzIIIrYUgGo_h60R-66" style="edgeStyle=none;rounded=0;sketch=0;orthogonalLoop=1;jettySize=auto;html=1;exitX=0.5;exitY=0;exitDx=0;exitDy=0;entryX=0.608;entryY=1.05;entryDx=0;entryDy=0;entryPerimeter=0;shadow=0;endArrow=none;endFill=0;strokeColor=#000000;" parent="1" source="eOK4KzIIIrYUgGo_h60R-47" target="eOK4KzIIIrYUgGo_h60R-45" edge="1">
          <mxGeometry relative="1" as="geometry" />
        </mxCell>
        <mxCell id="eOK4KzIIIrYUgGo_h60R-47" value="Nome" style="ellipse;whiteSpace=wrap;html=1;" parent="1" vertex="1">
          <mxGeometry x="-230" y="860" width="90" height="40" as="geometry" />
        </mxCell>
        <mxCell id="eOK4KzIIIrYUgGo_h60R-62" style="edgeStyle=none;rounded=0;sketch=0;orthogonalLoop=1;jettySize=auto;html=1;exitX=0;exitY=0;exitDx=0;exitDy=0;entryX=0.923;entryY=1;entryDx=0;entryDy=0;entryPerimeter=0;shadow=0;endArrow=none;endFill=0;strokeColor=#000000;" parent="1" source="eOK4KzIIIrYUgGo_h60R-48" target="eOK4KzIIIrYUgGo_h60R-45" edge="1">
          <mxGeometry relative="1" as="geometry" />
        </mxCell>
        <mxCell id="eOK4KzIIIrYUgGo_h60R-48" value="Endereço" style="ellipse;whiteSpace=wrap;html=1;" parent="1" vertex="1">
          <mxGeometry x="-130" y="860" width="90" height="40" as="geometry" />
        </mxCell>
        <mxCell id="eOK4KzIIIrYUgGo_h60R-65" style="edgeStyle=none;rounded=0;sketch=0;orthogonalLoop=1;jettySize=auto;html=1;exitX=0.5;exitY=0;exitDx=0;exitDy=0;entryX=0.169;entryY=1.075;entryDx=0;entryDy=0;entryPerimeter=0;shadow=0;endArrow=none;endFill=0;strokeColor=#000000;" parent="1" source="eOK4KzIIIrYUgGo_h60R-49" target="eOK4KzIIIrYUgGo_h60R-45" edge="1">
          <mxGeometry relative="1" as="geometry" />
        </mxCell>
        <mxCell id="eOK4KzIIIrYUgGo_h60R-49" value="Cargo" style="ellipse;whiteSpace=wrap;html=1;" parent="1" vertex="1">
          <mxGeometry x="-330" y="860" width="90" height="40" as="geometry" />
        </mxCell>
        <mxCell id="eOK4KzIIIrYUgGo_h60R-56" style="edgeStyle=none;rounded=0;sketch=0;orthogonalLoop=1;jettySize=auto;html=1;exitX=0.5;exitY=0;exitDx=0;exitDy=0;entryX=0.5;entryY=1;entryDx=0;entryDy=0;shadow=0;endArrow=none;endFill=0;strokeColor=#000000;" parent="1" source="eOK4KzIIIrYUgGo_h60R-50" target="eOK4KzIIIrYUgGo_h60R-48" edge="1">
          <mxGeometry relative="1" as="geometry" />
        </mxCell>
        <mxCell id="eOK4KzIIIrYUgGo_h60R-50" value="Complemento" style="ellipse;whiteSpace=wrap;html=1;" parent="1" vertex="1">
          <mxGeometry x="-125" y="1000" width="80" height="40" as="geometry" />
        </mxCell>
        <mxCell id="eOK4KzIIIrYUgGo_h60R-57" style="edgeStyle=none;rounded=0;sketch=0;orthogonalLoop=1;jettySize=auto;html=1;exitX=0;exitY=0;exitDx=0;exitDy=0;entryX=0.667;entryY=1.04;entryDx=0;entryDy=0;entryPerimeter=0;shadow=0;endArrow=none;endFill=0;strokeColor=#000000;" parent="1" source="eOK4KzIIIrYUgGo_h60R-51" target="eOK4KzIIIrYUgGo_h60R-48" edge="1">
          <mxGeometry relative="1" as="geometry" />
        </mxCell>
        <mxCell id="eOK4KzIIIrYUgGo_h60R-51" value="CEP" style="ellipse;whiteSpace=wrap;html=1;" parent="1" vertex="1">
          <mxGeometry x="-55" y="970" width="80" height="40" as="geometry" />
        </mxCell>
        <mxCell id="eOK4KzIIIrYUgGo_h60R-58" style="edgeStyle=none;rounded=0;sketch=0;orthogonalLoop=1;jettySize=auto;html=1;exitX=0;exitY=0;exitDx=0;exitDy=0;shadow=0;endArrow=none;endFill=0;strokeColor=#000000;" parent="1" source="eOK4KzIIIrYUgGo_h60R-52" target="eOK4KzIIIrYUgGo_h60R-48" edge="1">
          <mxGeometry relative="1" as="geometry" />
        </mxCell>
        <mxCell id="eOK4KzIIIrYUgGo_h60R-52" value="Numero" style="ellipse;whiteSpace=wrap;html=1;" parent="1" vertex="1">
          <mxGeometry x="-20" y="920" width="80" height="40" as="geometry" />
        </mxCell>
        <mxCell id="eOK4KzIIIrYUgGo_h60R-59" style="edgeStyle=none;rounded=0;sketch=0;orthogonalLoop=1;jettySize=auto;html=1;exitX=0;exitY=0.5;exitDx=0;exitDy=0;entryX=1;entryY=0.5;entryDx=0;entryDy=0;shadow=0;endArrow=none;endFill=0;strokeColor=#000000;" parent="1" source="eOK4KzIIIrYUgGo_h60R-53" target="eOK4KzIIIrYUgGo_h60R-48" edge="1">
          <mxGeometry relative="1" as="geometry" />
        </mxCell>
        <mxCell id="eOK4KzIIIrYUgGo_h60R-53" value="Logradouro" style="ellipse;whiteSpace=wrap;html=1;" parent="1" vertex="1">
          <mxGeometry x="-5" y="870" width="80" height="40" as="geometry" />
        </mxCell>
        <mxCell id="eOK4KzIIIrYUgGo_h60R-61" style="edgeStyle=none;rounded=0;sketch=0;orthogonalLoop=1;jettySize=auto;html=1;exitX=0;exitY=1;exitDx=0;exitDy=0;shadow=0;endArrow=none;endFill=0;strokeColor=#000000;" parent="1" source="eOK4KzIIIrYUgGo_h60R-54" edge="1">
          <mxGeometry relative="1" as="geometry">
            <mxPoint x="-70" y="860" as="targetPoint" />
          </mxGeometry>
        </mxCell>
        <mxCell id="eOK4KzIIIrYUgGo_h60R-54" value="Estado" style="ellipse;whiteSpace=wrap;html=1;" parent="1" vertex="1">
          <mxGeometry x="-85" y="780" width="80" height="40" as="geometry" />
        </mxCell>
        <mxCell id="eOK4KzIIIrYUgGo_h60R-60" style="edgeStyle=none;rounded=0;sketch=0;orthogonalLoop=1;jettySize=auto;html=1;exitX=0;exitY=0.5;exitDx=0;exitDy=0;shadow=0;endArrow=none;endFill=0;strokeColor=#000000;" parent="1" source="eOK4KzIIIrYUgGo_h60R-55" target="eOK4KzIIIrYUgGo_h60R-48" edge="1">
          <mxGeometry relative="1" as="geometry" />
        </mxCell>
        <mxCell id="eOK4KzIIIrYUgGo_h60R-55" value="Cidade" style="ellipse;whiteSpace=wrap;html=1;" parent="1" vertex="1">
          <mxGeometry x="-30" y="820" width="80" height="40" as="geometry" />
        </mxCell>
        <mxCell id="eOK4KzIIIrYUgGo_h60R-64" style="edgeStyle=none;rounded=0;sketch=0;orthogonalLoop=1;jettySize=auto;html=1;exitX=1;exitY=0.5;exitDx=0;exitDy=0;entryX=0.077;entryY=1;entryDx=0;entryDy=0;entryPerimeter=0;shadow=0;endArrow=none;endFill=0;strokeColor=#000000;" parent="1" source="eOK4KzIIIrYUgGo_h60R-63" target="eOK4KzIIIrYUgGo_h60R-45" edge="1">
          <mxGeometry relative="1" as="geometry" />
        </mxCell>
        <mxCell id="eOK4KzIIIrYUgGo_h60R-63" value="&lt;u&gt;Matricula&lt;/u&gt;" style="ellipse;whiteSpace=wrap;html=1;" parent="1" vertex="1">
          <mxGeometry x="-420" y="830" width="100" height="40" as="geometry" />
        </mxCell>
        <mxCell id="eOK4KzIIIrYUgGo_h60R-70" style="edgeStyle=none;rounded=0;sketch=0;orthogonalLoop=1;jettySize=auto;html=1;exitX=1;exitY=0.5;exitDx=0;exitDy=0;entryX=0;entryY=0.5;entryDx=0;entryDy=0;shadow=0;endArrow=none;endFill=0;strokeColor=#000000;" parent="1" source="eOK4KzIIIrYUgGo_h60R-67" target="eOK4KzIIIrYUgGo_h60R-45" edge="1">
          <mxGeometry relative="1" as="geometry" />
        </mxCell>
        <mxCell id="eOK4KzIIIrYUgGo_h60R-67" value="Data_fim" style="ellipse;whiteSpace=wrap;html=1;" parent="1" vertex="1">
          <mxGeometry x="-473" y="740" width="96.5" height="40" as="geometry" />
        </mxCell>
        <mxCell id="eOK4KzIIIrYUgGo_h60R-69" style="edgeStyle=none;rounded=0;sketch=0;orthogonalLoop=1;jettySize=auto;html=1;exitX=1;exitY=0.5;exitDx=0;exitDy=0;entryX=0;entryY=0.75;entryDx=0;entryDy=0;shadow=0;endArrow=none;endFill=0;strokeColor=#000000;" parent="1" source="eOK4KzIIIrYUgGo_h60R-68" target="eOK4KzIIIrYUgGo_h60R-45" edge="1">
          <mxGeometry relative="1" as="geometry" />
        </mxCell>
        <mxCell id="eOK4KzIIIrYUgGo_h60R-68" value="Data_inìcio" style="ellipse;whiteSpace=wrap;html=1;" parent="1" vertex="1">
          <mxGeometry x="-473" y="790" width="103" height="40" as="geometry" />
        </mxCell>
        <mxCell id="eOK4KzIIIrYUgGo_h60R-72" style="edgeStyle=none;rounded=0;sketch=0;orthogonalLoop=1;jettySize=auto;html=1;exitX=1;exitY=0.5;exitDx=0;exitDy=0;entryX=0;entryY=0.75;entryDx=0;entryDy=0;shadow=0;endArrow=none;endFill=0;strokeColor=#000000;" parent="1" source="eOK4KzIIIrYUgGo_h60R-71" target="eOK4KzIIIrYUgGo_h60R-1" edge="1">
          <mxGeometry relative="1" as="geometry" />
        </mxCell>
        <mxCell id="eOK4KzIIIrYUgGo_h60R-73" style="edgeStyle=none;rounded=0;sketch=0;orthogonalLoop=1;jettySize=auto;html=1;exitX=0.5;exitY=1;exitDx=0;exitDy=0;entryX=0.5;entryY=0;entryDx=0;entryDy=0;shadow=0;endArrow=none;endFill=0;strokeColor=#000000;" parent="1" source="eOK4KzIIIrYUgGo_h60R-71" target="eOK4KzIIIrYUgGo_h60R-45" edge="1">
          <mxGeometry relative="1" as="geometry" />
        </mxCell>
        <mxCell id="eOK4KzIIIrYUgGo_h60R-71" value="Relationship" style="rhombus;whiteSpace=wrap;html=1;" parent="1" vertex="1">
          <mxGeometry x="-282.5" y="260" width="115" height="70" as="geometry" />
        </mxCell>
        <mxCell id="eOK4KzIIIrYUgGo_h60R-75" style="edgeStyle=none;rounded=0;sketch=0;orthogonalLoop=1;jettySize=auto;html=1;exitX=0.5;exitY=1;exitDx=0;exitDy=0;entryX=0.5;entryY=0;entryDx=0;entryDy=0;shadow=0;endArrow=none;endFill=0;strokeColor=#000000;" parent="1" source="eOK4KzIIIrYUgGo_h60R-74" target="eOK4KzIIIrYUgGo_h60R-30" edge="1">
          <mxGeometry relative="1" as="geometry" />
        </mxCell>
        <mxCell id="eOK4KzIIIrYUgGo_h60R-77" style="edgeStyle=none;rounded=0;sketch=0;orthogonalLoop=1;jettySize=auto;html=1;exitX=0.5;exitY=0;exitDx=0;exitDy=0;entryX=0;entryY=1;entryDx=0;entryDy=0;shadow=0;endArrow=none;endFill=0;strokeColor=#000000;" parent="1" source="eOK4KzIIIrYUgGo_h60R-74" target="eOK4KzIIIrYUgGo_h60R-76" edge="1">
          <mxGeometry relative="1" as="geometry" />
        </mxCell>
        <mxCell id="eOK4KzIIIrYUgGo_h60R-74" value="Relationship" style="rhombus;whiteSpace=wrap;html=1;" parent="1" vertex="1">
          <mxGeometry x="350" y="430" width="100" height="60" as="geometry" />
        </mxCell>
        <mxCell id="eOK4KzIIIrYUgGo_h60R-79" style="edgeStyle=none;rounded=0;sketch=0;orthogonalLoop=1;jettySize=auto;html=1;exitX=1;exitY=0;exitDx=0;exitDy=0;entryX=0.2;entryY=1;entryDx=0;entryDy=0;entryPerimeter=0;shadow=0;endArrow=none;endFill=0;strokeColor=#000000;" parent="1" source="eOK4KzIIIrYUgGo_h60R-76" target="eOK4KzIIIrYUgGo_h60R-78" edge="1">
          <mxGeometry relative="1" as="geometry" />
        </mxCell>
        <mxCell id="eOK4KzIIIrYUgGo_h60R-76" value="Monobrista" style="rounded=0;whiteSpace=wrap;html=1;" parent="1" vertex="1">
          <mxGeometry x="424" y="330" width="96" height="40" as="geometry" />
        </mxCell>
        <mxCell id="eOK4KzIIIrYUgGo_h60R-78" value="&lt;u&gt;CNH&lt;/u&gt;" style="ellipse;whiteSpace=wrap;html=1;" parent="1" vertex="1">
          <mxGeometry x="530" y="240" width="100" height="50" as="geometry" />
        </mxCell>
        <mxCell id="eOK4KzIIIrYUgGo_h60R-81" style="edgeStyle=none;rounded=0;sketch=0;orthogonalLoop=1;jettySize=auto;html=1;exitX=1;exitY=1;exitDx=0;exitDy=0;entryX=0;entryY=0;entryDx=0;entryDy=0;shadow=0;endArrow=none;endFill=0;strokeColor=#000000;" parent="1" source="eOK4KzIIIrYUgGo_h60R-80" target="eOK4KzIIIrYUgGo_h60R-1" edge="1">
          <mxGeometry relative="1" as="geometry" />
        </mxCell>
        <mxCell id="eOK4KzIIIrYUgGo_h60R-80" value="Estacionamento&amp;nbsp;" style="rounded=0;whiteSpace=wrap;html=1;" parent="1" vertex="1">
          <mxGeometry x="-97.5" y="90" width="105" height="50" as="geometry" />
        </mxCell>
        <mxCell id="AVPyJ-v6xZrarKyibVc9-4" style="rounded=0;orthogonalLoop=1;jettySize=auto;html=1;endArrow=none;endFill=0;" edge="1" parent="1" source="AVPyJ-v6xZrarKyibVc9-1" target="eOK4KzIIIrYUgGo_h60R-80">
          <mxGeometry relative="1" as="geometry" />
        </mxCell>
        <mxCell id="AVPyJ-v6xZrarKyibVc9-1" value="Nome" style="ellipse;whiteSpace=wrap;html=1;" vertex="1" parent="1">
          <mxGeometry x="-225" y="20" width="140" height="40" as="geometry" />
        </mxCell>
        <mxCell id="AVPyJ-v6xZrarKyibVc9-5" style="edgeStyle=none;rounded=0;orthogonalLoop=1;jettySize=auto;html=1;entryX=0.25;entryY=0;entryDx=0;entryDy=0;endArrow=none;endFill=0;" edge="1" parent="1" source="AVPyJ-v6xZrarKyibVc9-2" target="eOK4KzIIIrYUgGo_h60R-80">
          <mxGeometry relative="1" as="geometry" />
        </mxCell>
        <mxCell id="AVPyJ-v6xZrarKyibVc9-2" value="Endereço" style="ellipse;whiteSpace=wrap;html=1;" vertex="1" parent="1">
          <mxGeometry x="-70" y="20" width="140" height="40" as="geometry" />
        </mxCell>
        <mxCell id="AVPyJ-v6xZrarKyibVc9-6" style="edgeStyle=none;rounded=0;orthogonalLoop=1;jettySize=auto;html=1;entryX=0.5;entryY=0;entryDx=0;entryDy=0;endArrow=none;endFill=0;" edge="1" parent="1" source="AVPyJ-v6xZrarKyibVc9-3" target="eOK4KzIIIrYUgGo_h60R-80">
          <mxGeometry relative="1" as="geometry" />
        </mxCell>
        <mxCell id="AVPyJ-v6xZrarKyibVc9-3" value="Telefone" style="ellipse;whiteSpace=wrap;html=1;" vertex="1" parent="1">
          <mxGeometry x="90" y="20" width="140" height="40" as="geometry" />
        </mxCell>
      </root>
    </mxGraphModel>
  </diagram>
</mxfile>
